<?xml version="1.0" encoding="UTF-8" standalone="no"?>
<!-- Created with Inkscape (http://www.inkscape.org/) -->

<svg
   width="512"
   height="512"
   viewBox="0 0 512 512"
   version="1.1"
   id="svg1"
   inkscape:export-filename="Loot &amp; Roam monochrome.png"
   inkscape:export-xdpi="96"
   inkscape:export-ydpi="96"
   sodipodi:docname="Loot &amp; Roam monochrome.svg"
   inkscape:version="1.4 (e7c3feb100, 2024-10-09)"
   xmlns:inkscape="http://www.inkscape.org/namespaces/inkscape"
   xmlns:sodipodi="http://sodipodi.sourceforge.net/DTD/sodipodi-0.dtd"
   xmlns="http://www.w3.org/2000/svg"
   xmlns:svg="http://www.w3.org/2000/svg">
  <sodipodi:namedview
     id="namedview1"
     pagecolor="#ffffff"
     bordercolor="#111111"
     borderopacity="1"
     inkscape:showpageshadow="0"
     inkscape:pageopacity="0"
     inkscape:pagecheckerboard="1"
     inkscape:deskcolor="#d1d1d1"
     inkscape:document-units="px"
     inkscape:zoom="1.1131408"
     inkscape:cx="109.5998"
     inkscape:cy="245.252"
     inkscape:window-width="1920"
     inkscape:window-height="1016"
     inkscape:window-x="0"
     inkscape:window-y="0"
     inkscape:window-maximized="1"
     inkscape:current-layer="layer1" />
  <defs
     id="defs1" />
  <g
     inkscape:label="Layer 1"
     inkscape:groupmode="layer"
     id="layer1">
    <path
       id="text1-3"
       style="font-size:574.502px;font-family:Crimson;-inkscape-font-specification:Crimson;text-align:start;writing-mode:lr-tb;direction:ltr;text-anchor:start;fill:#f9f9f9;stroke-width:651.403"
       d="m 225.07422,30.585938 c -17.52617,0.393388 -34.80456,6.988924 -48.2239,18.252227 -14.41301,11.950965 -24.55523,28.6216 -29.67074,46.552419 -3.48192,12.077436 -4.65573,24.747146 -4.08288,37.281226 0.56167,18.04807 3.83889,35.98811 9.49487,53.12969 4.92381,15.14625 11.34465,29.7508 18.13695,44.13795 -14.03944,9.0268 -27.69656,18.76392 -39.97071,30.11133 -26.53307,7.68145 -53.067216,15.35923 -79.599607,23.04297 -5.528935,2.19504 -10.181449,7.07969 -11.232422,13.04492 -1.242455,6.86066 1.656983,14.32423 7.238281,18.50977 4.430154,3.23719 10.272356,4.1446 15.587333,3.04515 9.029529,-1.45932 18.058466,-2.92229 27.086496,-4.39086 0.741121,1.33904 1.752582,2.5313 2.912109,3.51563 -5.197294,15.83294 -6.776987,32.71899 -5.519258,49.29665 1.311516,18.33398 6.1908,36.64994 15.833708,52.41038 7.36212,12.04263 17.43049,22.44765 29.36719,30.00391 14.21931,9.0804 30.72358,14.21772 47.43928,16.00488 11.23638,1.23811 22.68483,1.24399 33.81633,-0.89343 18.70491,-3.50884 36.23879,-11.8124 51.89869,-22.47473 8.37719,-5.71897 16.24938,-12.17151 23.54101,-19.22071 8.13749,10.82821 17.42331,20.91079 28.28771,29.05646 7.42506,5.47629 15.79195,10.00091 24.92478,11.75318 7.82365,1.41155 15.91864,0.64937 23.56913,-1.35603 10.11606,-2.73672 19.40112,-8.27246 26.82106,-15.65044 9.61663,-9.40898 16.52628,-21.3148 21.11021,-33.89692 1.11035,-3.33497 0.19408,-6.95263 -1.26327,-10.02849 -2.27182,-4.54268 -6.01307,-8.38466 -10.55913,-10.66937 -2.77514,-1.38511 -5.91651,-2.09006 -9.01504,-1.90854 -2.64106,0.22053 -4.84418,2.29783 -5.56099,4.7971 -0.99854,3.18246 -2.61209,6.13418 -4.35547,8.9636 -0.45004,0.71874 -1.07137,1.67103 -1.62321,2.45682 -2.81403,4.05289 -5.88869,8.04346 -9.85921,11.03341 -1.4884,1.00067 -3.13564,2.32395 -5.05271,1.90045 -4.29661,-1.14415 -7.66413,-4.25189 -10.87601,-7.16421 -8.14941,-7.70865 -15.02221,-16.61473 -22.046,-25.32529 -2.38732,-3.01123 -4.76643,-6.02878 -7.13661,-9.05352 17.27743,-25.34408 31.8379,-52.42032 45.36818,-79.9138 1.38732,-2.77909 2.76558,-5.56471 4.27635,-8.27956 5.87807,-3.13173 12.32387,-4.98513 18.73066,-6.68916 4.2066,-1.0685 8.49341,-1.90059 12.83648,-2.09293 3.65942,-0.4649 6.37296,-3.77226 7.07835,-7.24939 0.88343,-4.02837 1.04994,-8.17328 1.00881,-12.28493 14.46474,-2.35759 28.93827,-4.66877 43.38867,-7.10352 9.94947,-2.6707 18.95869,-9.40272 23.57296,-18.71105 3.80303,-7.49384 4.59439,-16.20519 3.42109,-24.44354 -0.88244,-6.38025 -2.68431,-12.66309 -5.51923,-18.45428 -3.60414,-7.2762 -9.20506,-13.7162 -16.43381,-17.55128 -6.38828,-3.47451 -13.91143,-4.9678 -21.11573,-3.76491 -7.50481,1.01117 -14.63273,3.69983 -21.8972,5.6854 -59.47019,17.21495 -118.94156,34.42585 -178.4148,51.63029 15.43764,-12.35589 30.15494,-25.87239 42.00363,-41.78438 10.78001,-14.4933 18.94305,-31.10024 22.69943,-48.82515 2.85894,-13.14599 3.65086,-26.76836 2.0974,-40.139823 -1.63155,-13.145544 -6.13808,-26.11984 -14.15847,-36.758506 -7.30135,-9.777853 -17.35033,-17.388286 -28.57549,-22.11949 -13.13009,-5.633003 -27.57632,-7.633756 -41.78525,-7.417573 z m 2.20312,39.251953 c 0.57855,-0.01125 1.45391,0.02633 1.85352,0.05469 3.82059,0.266269 7.55584,1.487842 10.8457,3.4375 0.287,0.163646 0.89617,0.546265 1.28978,0.818074 4.51728,3.089943 7.95058,7.535469 10.58586,12.281917 4.97942,9.207402 7.1938,19.710621 7.52202,30.115571 0.0921,3.05378 0.005,6.28316 -0.11445,9.22389 -0.36437,8.63114 -1.47646,17.26746 -3.89063,25.57813 -0.37613,1.27893 -0.84786,2.77533 -1.31952,4.12078 -0.44229,1.26527 -0.88077,2.42335 -1.40437,3.70728 -4.18681,10.40398 -11.11662,19.5082 -19.20934,27.19172 -4.44056,4.2516 -9.22577,8.12395 -14.1156,11.8435 -0.45051,0.62287 -0.6065,-0.32375 -0.82248,-0.74528 -3.18639,-7.426 -6.21023,-14.93138 -8.95913,-22.57912 -3.34992,-9.31172 -6.36523,-19.03399 -8.62513,-28.78795 -2.8558,-12.35358 -4.58472,-25.02985 -4.33349,-37.7275 0.3477,-9.644928 3.2088,-19.40607 9.22838,-27.062541 4.50872,-5.760131 11.0077,-10.247962 18.35728,-11.261452 1.03188,-0.137882 2.0707,-0.205233 3.1116,-0.209206 z m 225.375,125.857419 c 4.03013,0.22331 7.42357,3.16779 9.29625,6.58638 1.84495,3.32122 2.61228,7.19485 2.35024,10.97417 -0.0248,0.28872 -0.0855,1.02707 -0.16233,1.49273 -0.66531,4.70531 -3.02993,9.44342 -7.24377,11.90095 -2.78348,1.7004 -6.43737,1.72061 -9.26379,0.1066 -3.96082,-2.17772 -6.35615,-6.45784 -7.22793,-10.78444 -1.16542,-5.8444 0.10105,-12.41625 4.28663,-16.82344 2.05141,-2.15895 4.92951,-3.6447 7.9647,-3.45295 z m -149.13672,82.9336 c 1.53183,1.0357 3.43474,1.23512 5.21201,1.54949 3.63367,0.44086 7.32398,0.32661 10.92437,1.05901 1.46667,0.29872 3.08549,0.64454 4.19761,1.68056 -0.0411,1.36641 -0.45967,2.70209 -0.72415,4.04089 -1.7228,6.69429 -4.03419,13.2216 -6.41648,19.7052 -4.58557,12.17904 -9.90818,24.07355 -15.70703,35.72071 -5.92243,-8.36296 -11.73055,-16.89132 -17.34765,-25.41016 -1.60978,-2.46775 -3.22913,-4.92912 -4.81836,-7.41016 6.9661,-2.8212 12.64957,-8.95667 14.36284,-16.34327 1.01982,-4.22847 0.78903,-8.75256 -0.65972,-12.85399 3.64392,-0.59443 7.28875,-1.18274 10.9336,-1.77149 z m -96.92968,20.52929 c 16.8699,30.53568 35.18611,60.33004 55.89791,88.42469 1.7757,2.40143 3.57316,4.78662 5.39506,7.15344 -8.35081,9.08051 -18.69253,16.29578 -30.00909,21.18424 -8.76276,3.7819 -18.29658,6.20244 -27.89646,5.68264 -1.60365,-0.0602 -3.10129,-0.17586 -4.59767,-0.32379 -8.75205,-0.86574 -17.47081,-3.2658 -25.26827,-7.52551 -8.90846,-4.78357 -16.43491,-12.0399 -21.64028,-20.69995 -6.17117,-10.12014 -9.33377,-21.80952 -10.60191,-33.52271 -0.20671,-1.87927 -0.36295,-3.96714 -0.48492,-5.9326 -0.18045,-3.11767 -0.2516,-6.1249 -0.2047,-9.26732 0.12872,-9.67708 1.55643,-19.60556 5.02361,-28.75906 1.7769,-4.71456 4.04481,-9.24088 6.73828,-13.49805 15.07422,-2.44857 30.14844,-4.89714 45.22266,-7.3457 0.80859,1.47656 1.61718,2.95312 2.42578,4.42968 z" />
    <text
       xml:space="preserve"
       style="font-size:574.502px;font-family:Crimson;-inkscape-font-specification:Crimson;text-align:start;writing-mode:lr-tb;direction:ltr;text-anchor:start;fill:#000000;stroke-width:651.403"
       x="70.099884"
       y="413.35074"
       id="text1"
       transform="scale(0.90485276,1.1051522)"><tspan
         sodipodi:role="line"
         id="tspan1"
         x="70.099884"
         y="413.35074"
         style="stroke-width:651.403;fill:#000000">&amp;</tspan></text>
    <ellipse
       style="fill:#000000;stroke-width:30.2362"
       id="path1"
       cx="265.31128"
       cy="289.44501"
       rx="17.068821"
       ry="15.384398" />
    <ellipse
       style="fill:#000000;stroke-width:8.21524"
       id="path1-2"
       cx="97.059288"
       cy="308.83057"
       rx="4.6376295"
       ry="4.1799688" />
    <path
       id="path2"
       style="fill:#000000;stroke-width:41.354"
       d="M 445.12305 179.64844 C 437.71159 179.53615 426.32227 183.5332 426.32227 183.5332 L 173.04688 256.81836 L 188.54688 256.81836 C 185.91099 259.06294 183.24989 261.279 180.68945 263.60938 C 170.41442 272.9314 160.66071 283.18866 154.0625 295.50586 L 453.44922 246.86328 C 453.44922 246.86328 480.35433 241.0569 474.33789 210.01367 C 468.32145 178.97042 445.12305 179.64844 445.12305 179.64844 z M 448.50586 189.00977 C 459.54927 189.01014 468.50164 199.9116 468.50195 213.35938 C 468.50253 226.80791 459.54989 237.71057 448.50586 237.71094 C 437.46183 237.71057 428.50919 226.8079 428.50977 213.35938 C 428.51008 199.91161 437.46245 189.01014 448.50586 189.00977 z M 117.00391 273.03516 L 50.142578 292.38086 C 50.142578 292.38086 41.201074 295.66985 44.490234 304.61133 C 47.779384 313.55279 57.525391 311.19141 57.525391 311.19141 L 99.421875 304.38477 C 99.786654 303.3808 100.16133 302.37966 100.5625 301.38867 C 104.65473 291.19786 110.30867 281.72106 117.00391 273.03516 z " />
  </g>
</svg>
